{
	"asset":{
		"generator":"Khronos glTF Blender I/O v4.2.60",
		"version":"2.0"
	},
	"extensionsUsed":[
		"EXT_texture_webp"
	],
	"extensionsRequired":[
		"EXT_texture_webp"
	],
	"scene":0,
	"scenes":[
		{
			"name":"Scene",
			"nodes":[
				0
			]
		}
	],
	"nodes":[
		{
			"mesh":0,
			"name":"Buch",
			"rotation":[
				0.6087613701820374,
				0,
				0,
				0.7933533787727356
			],
			"scale":[
				4.627262592315674,
				4.627262115478516,
				4.627263069152832
			]
		}
	],
	"materials":[
		{
			"doubleSided":true,
			"name":"Cover_Texture",
			"pbrMetallicRoughness":{
				"baseColorTexture":{
					"index":0,
					"texCoord":1
				},
				"metallicFactor":0,
				"roughnessFactor":0.75
			}
		},
		{
			"doubleSided":true,
			"name":"Seiten_Texture",
			"pbrMetallicRoughness":{
				"baseColorTexture":{
					"index":1,
					"texCoord":2
				},
				"metallicFactor":0,
				"roughnessFactor":0.5
			}
		}
	],
	"meshes":[
		{
			"name":"Cube",
			"primitives":[
				{
					"attributes":{
						"POSITION":0,
						"NORMAL":1,
						"TEXCOORD_0":2,
						"TEXCOORD_1":3,
						"TEXCOORD_2":4
					},
					"indices":5,
					"material":0
				},
				{
					"attributes":{
						"POSITION":6,
						"NORMAL":7,
						"TEXCOORD_0":8,
						"TEXCOORD_1":9,
						"TEXCOORD_2":10
					},
					"indices":11,
					"material":1
				}
			]
		}
	],
	"textures":[
		{
			"extensions":{
				"EXT_texture_webp":{
					"source":0
				}
			},
			"sampler":0
		},
		{
			"extensions":{
				"EXT_texture_webp":{
					"source":1
				}
			},
			"sampler":0
		}
	],
	"images":[
		{
			"mimeType":"image/webp",
			"name":"Cover_Texture",
			"uri":"Cover_Texture.webp"
		},
		{
			"mimeType":"image/webp",
			"name":"Seiten_Textur",
			"uri":"Seiten_Textur.webp"
		}
	],
	"accessors":[
		{
			"bufferView":0,
			"componentType":5126,
			"count":7659,
			"max":[
				0.05991348624229431,
				0.011500001884996891,
				0.08993112295866013
			],
			"min":[
				-0.060925718396902084,
				-0.011500002816319466,
				-0.08993112295866013
			],
			"type":"VEC3"
		},
		{
			"bufferView":1,
			"componentType":5126,
			"count":7659,
			"type":"VEC3"
		},
		{
			"bufferView":2,
			"componentType":5126,
			"count":7659,
			"type":"VEC2"
		},
		{
			"bufferView":3,
			"componentType":5126,
			"count":7659,
			"type":"VEC2"
		},
		{
			"bufferView":4,
			"componentType":5126,
			"count":7659,
			"type":"VEC2"
		},
		{
			"bufferView":5,
			"componentType":5123,
			"count":39168,
			"type":"SCALAR"
		},
		{
			"bufferView":6,
			"componentType":5126,
			"count":4718,
			"max":[
				0.06000000610947609,
				0.011408155784010887,
				0.09000002592802048
			],
			"min":[
				-0.06081447750329971,
				-0.011408156715333462,
				-0.09000002592802048
			],
			"type":"VEC3"
		},
		{
			"bufferView":7,
			"componentType":5126,
			"count":4718,
			"type":"VEC3"
		},
		{
			"bufferView":8,
			"componentType":5126,
			"count":4718,
			"type":"VEC2"
		},
		{
			"bufferView":9,
			"componentType":5126,
			"count":4718,
			"type":"VEC2"
		},
		{
			"bufferView":10,
			"componentType":5126,
			"count":4718,
			"type":"VEC2"
		},
		{
			"bufferView":11,
			"componentType":5123,
			"count":23040,
			"type":"SCALAR"
		}
	],
	"bufferViews":[
		{
			"buffer":0,
			"byteLength":91908,
			"byteOffset":0,
			"target":34962
		},
		{
			"buffer":0,
			"byteLength":91908,
			"byteOffset":91908,
			"target":34962
		},
		{
			"buffer":0,
			"byteLength":61272,
			"byteOffset":183816,
			"target":34962
		},
		{
			"buffer":0,
			"byteLength":61272,
			"byteOffset":245088,
			"target":34962
		},
		{
			"buffer":0,
			"byteLength":61272,
			"byteOffset":306360,
			"target":34962
		},
		{
			"buffer":0,
			"byteLength":78336,
			"byteOffset":367632,
			"target":34963
		},
		{
			"buffer":0,
			"byteLength":56616,
			"byteOffset":445968,
			"target":34962
		},
		{
			"buffer":0,
			"byteLength":56616,
			"byteOffset":502584,
			"target":34962
		},
		{
			"buffer":0,
			"byteLength":37744,
			"byteOffset":559200,
			"target":34962
		},
		{
			"buffer":0,
			"byteLength":37744,
			"byteOffset":596944,
			"target":34962
		},
		{
			"buffer":0,
			"byteLength":37744,
			"byteOffset":634688,
			"target":34962
		},
		{
			"buffer":0,
			"byteLength":46080,
			"byteOffset":672432,
			"target":34963
		}
	],
	"samplers":[
		{
			"magFilter":9729,
			"minFilter":9987
		}
	],
	"buffers":[
		{
			"byteLength":718512,
			"uri":"Rammification_Threejs.bin"
		}
	]
}
